<svg height="512" viewBox="0 0 256 256" width="512" xmlns="http://www.w3.org/2000/svg">
    <path d="m217 52.431h-178a7.508 7.508 0 0 0 -7.5 7.5v136.138a7.508 7.508 0 0 0 7.5 7.5h178a7.508 7.508 0 0 0 7.5-7.5v-136.138a7.508 7.508 0 0 0 -7.5-7.5zm-178 5h178a2.5 2.5 0 0 1 2.5 2.5v23.236h-183v-23.236a2.5 2.5 0 0 1 2.5-2.5zm178 141.138h-178a2.5 2.5 0 0 1 -2.5-2.5v-107.902h183v107.9a2.5 2.5 0 0 1 -2.5 2.502z"
          fill="#808080"/>
    <path d="m166.333 73.5h5.334a2.5 2.5 0 0 0 0-5h-5.334a2.5 2.5 0 0 0 0 5z" fill="#808080"/>
    <path d="m184.333 73.5h5.334a2.5 2.5 0 1 0 0-5h-5.334a2.5 2.5 0 0 0 0 5z" fill="#808080"/>
    <path d="m202.333 73.5h5.334a2.5 2.5 0 1 0 0-5h-5.334a2.5 2.5 0 1 0 0 5z" fill="#808080"/>
    <path d="m48.333 73.5h5.334a2.5 2.5 0 0 0 0-5h-5.334a2.5 2.5 0 0 0 0 5z" fill="#808080"/>
    <g fill="#808080">
        <path d="m53.667 111.833h-5.334a2.5 2.5 0 0 1 0-5h5.334a2.5 2.5 0 0 1 0 5z"/>
        <path d="m53.667 129.5h-5.334a2.5 2.5 0 0 1 0-5h5.334a2.5 2.5 0 0 1 0 5z"/>
        <path d="m53.667 147.167h-5.334a2.5 2.5 0 0 1 0-5h5.334a2.5 2.5 0 0 1 0 5z"/>
        <path d="m53.667 164.833h-5.334a2.5 2.5 0 0 1 0-5h5.334a2.5 2.5 0 0 1 0 5z"/>
        <path d="m53.667 182.5h-5.334a2.5 2.5 0 0 1 0-5h5.334a2.5 2.5 0 0 1 0 5z"/>
        <path d="m207.667 111.833h-5.334a2.5 2.5 0 0 1 0-5h5.334a2.5 2.5 0 0 1 0 5z"/>
        <path d="m207.667 129.5h-5.334a2.5 2.5 0 1 1 0-5h5.334a2.5 2.5 0 1 1 0 5z"/>
        <path d="m207.667 147.167h-5.334a2.5 2.5 0 0 1 0-5h5.334a2.5 2.5 0 0 1 0 5z"/>
        <path d="m207.667 164.833h-5.334a2.5 2.5 0 0 1 0-5h5.334a2.5 2.5 0 0 1 0 5z"/>
        <path d="m207.667 182.5h-5.334a2.5 2.5 0 1 1 0-5h5.334a2.5 2.5 0 1 1 0 5z"/>
    </g>
    <path d="m113 180.308a2.5 2.5 0 0 1 -2.308-3.461l30-72.115a2.5 2.5 0 0 1 4.618 1.921l-30 72.115a2.5 2.5 0 0 1 -2.31 1.54z"
          fill="#808080"/>
    <path d="m156.99 167.77a2.5 2.5 0 0 1 -1.767-4.268l21.752-21.752-21.752-21.75a2.5 2.5 0 1 1 3.535-3.535l23.519 23.519a2.5 2.5 0 0 1 0 3.536l-23.519 23.519a2.494 2.494 0 0 1 -1.768.731z"
          fill="#808080"/>
    <path d="m99.01 167.77a2.494 2.494 0 0 1 -1.768-.733l-23.519-23.519a2.5 2.5 0 0 1 0-3.536l23.519-23.519a2.5 2.5 0 0 1 3.535 3.537l-21.752 21.75 21.752 21.75a2.5 2.5 0 0 1 -1.767 4.268z"
          fill="#808080"/>
</svg>