<svg xmlns="http://www.w3.org/2000/svg" width="292" height="240" fill="none"><path fill="#fff" d="M47.8 200.2c.14-3.32-2.4-5.74-5.6-5.74H28c-3.07 0-5.5 2.54-5.5 5.47v3.94c0 .4.13.77.38 1.02.26.25.64.37 1.03.37h8.32c.25 0 .38 0 .5.26 0 .13 0 .25-.12.5 0 .13-.13.26-.26.4-.9 1.13-2.04 2.02-3.45 2.53-1.54.64-3.08.9-4.74.9-1.53 0-3.07-.4-4.47-1.03-1.42-.63-2.57-1.52-3.72-2.54-1.4-1.54-2.43-3.44-2.94-5.22-.38-1.53-3.96-14.63-3.96-14.63H24.8c1.28 0 2.43.25 3.45.63 1.15.38 2.18 1.02 3.2 1.78 1.02.9 2.43 1.4 3.96 1.4 1.68 0 3.08-.63 4.23-1.65l3.45-2.92c.4-.25.52-.76.52-1.27 0-.37-.13-.75-.4-1-3.3-4.08-8.04-7-13.28-8.15-1.8-.38-3.7-.5-5.76-.5-3.32 0-6.52.63-9.33 1.9-2.94 1.28-5.5 2.93-7.67 5.1-2.17 2.15-3.96 4.57-5.24 7.5C.64 192.05 0 195.1 0 198.4c0 3.2.64 6.24 1.92 9.16 1.28 2.8 2.94 5.35 5.24 7.5 2.17 2.17 4.73 3.82 7.67 5.1 2.94 1.27 6 1.9 9.33 1.9 3.07 0 5.88-.5 8.57-1.52 2.68-1.02 5.1-2.42 7.16-4.2 2.03-1.78 3.82-3.94 5.1-6.36 1.28-2.42 2.18-5.1 2.43-8 .26-.9.38-1.3.38-1.8zM170.55 203.5c-.4-1.03-.77-1.9-1.4-2.8-.52-.77-1.16-1.4-1.8-2.04-.64-.5-1.28-1.02-2.04-1.4-.9-.38-.9-.9-.12-1.4 1.15-.76 2.04-1.9 3.06-3.3.9-1.4 1.4-3.06 1.4-4.84 0-2.3-.37-4.32-1.27-5.85-.9-1.66-2.04-2.93-3.45-3.94-1.4-1.02-3.07-1.8-4.86-2.17-1.8-.38-3.7-.63-5.75-.63h-18.9c-.4 0-.78.12-1.03.38-.26.26-.4.64-.4 1.03v42.74c0 .38.14.76.4 1 .25.27.63.4 1.02.4h19.93c2.05 0 4.1-.26 6-.64 1.93-.38 3.6-1.15 5.13-2.3 1.4-1 2.68-2.53 3.45-4.2.9-1.77 1.3-4.06 1.3-6.73-.14-1.02-.27-2.16-.65-3.3zm-16.37-17.05c.64 0 1.28.25 1.92.9.64.62 1.02 1.26 1.02 2.15 0 .9-.25 1.65-.9 2.42-.5.76-1.27 1.14-2.3 1.14h-6.5c-.52 0-.9-.13-1.16-.5-.64-.9-1.8-6.1-1.8-6.1h9.72zm3.2 22.4c-.77.62-1.54 1-2.3 1h-7.67c-.5 0-.9-.12-1.14-.5-.4-.5-.77-1.9-1.8-6.62h10.1c1.16 0 2.18.38 2.82 1.27.77.9 1.02 1.66 1.02 2.55 0 .76-.38 1.65-1.02 2.28zM123.24 175.25h-28.9c-.37 0-.76.13-1 .38-.27.26-.4.64-.4 1.02v8.53c0 .38.13.76.4 1 .24.27.63.4 1 .4h8.96c.5 0 .77.12 1.15.38.26.25.38.63.38 1v31.3c0 .4.13.77.4 1.02.24.26.63.38 1 .38h9.47c.5 0 .77-.12 1.15-.38.26-.25.4-.63.4-1v-25.7c-.02-2.68-1.68-7-1.68-7h11.9c.5 0 .76-.13 1.14-.4.27-.24.4-.62.4-1v-4.2c0-3.18-2.56-5.73-5.76-5.73zM246.5 175.25H217.7c-.38 0-.77.13-1.02.38-.26.26-.38.64-.38 1.02v8.53c0 .38.12.76.38 1 .25.27.64.4 1.02.4h8.95c.5 0 .77.12 1.15.38.26.25.4.63.4 1v31.3c0 .4.1.77.37 1.02.24.26.63.38 1 .38h9.47c.5 0 .77-.12 1.15-.38.26-.25.4-.63.4-1v-25.7c0-2.68-1.68-7-1.68-7h11.9c.5 0 .76-.13 1.14-.4.26-.24.4-.62.4-1v-4.2c0-3.18-2.7-5.73-5.9-5.73zM286.12 175.25h-28.77c-.38 0-.76.13-1.02.38-.25.26-.38.64-.38 1.02v8.53c0 .38.13.76.38 1 .26.27.64.4 1.02.4h8.95c.5 0 .77.12 1.15.38.26.25.4.63.4 1v31.3c0 .4.1.77.37 1.02.26.26.64.38 1.02.38h9.46c.5 0 .77-.12 1.16-.38.25-.25.38-.63.38-1v-25.7c0-2.68-1.66-7-1.66-7h11.9c.5 0 .75-.13 1.14-.4.25-.24.38-.62.38-1v-4.2c0-3.18-2.7-5.73-5.88-5.73zM65.84 186.7h22.12c.38 0 .77-.13 1.02-.38.26-.25.38-.64.38-1.02v-4.32c-.12-3.18-2.68-5.6-5.75-5.73H56c-.4 0-.77.13-1.03.38-.25.26-.38.64-.38 1.02v42.74c0 .38.12.76.37 1 .26.26.64.4 1.03.4h31.96c.38 0 .77-.14 1.02-.4.26-.24.38-.63.38-1v-4.33c-.12-3.18-2.68-5.6-5.75-5.73H68.66c-.76 0-1.4-.5-1.53-1.14 0-.13-1.28-4.45-1.28-4.45H78c.37 0 .75-.13 1-.38.26-.26.4-.64.4-1.02v-4.33c0-3.05-2.44-5.6-5.63-5.72h-5.24c-.77 0-1.28-.5-1.54-1.15 0-.12-1.16-4.45-1.16-4.45zM189.08 186.7h22.12c.4 0 .77-.13 1.02-.38.26-.25.4-.64.4-1.02v-4.32c-.14-3.18-2.7-5.6-5.77-5.73h-27.6c-.4 0-.78.13-1.03.38-.26.26-.4.64-.4 1.02v42.74c0 .38.14.76.4 1 .25.26.64.4 1.02.4h31.96c.4 0 .77-.14 1.02-.4.26-.24.4-.63.4-1v-4.33c-.14-3.18-2.7-5.6-5.77-5.73H191.9c-.77 0-1.4-.5-1.54-1.14 0-.13-1.28-4.45-1.28-4.45h12.15c.38 0 .77-.13 1.02-.38.26-.26.4-.64.4-1.02v-4.33c0-3.05-2.44-5.6-5.64-5.72h-5.1c-.77 0-1.28-.5-1.54-1.15 0-.12-1.28-4.45-1.28-4.45zM33.88 233.26v.63c0 .25-.13.38-.38.38h-2.56v5.2c0 .27-.13.4-.38.4h-.77c-.27 0-.4-.13-.4-.4v-6.35c0-.25.13-.38.4-.38h3.7c.25 0 .38.13.38.5zM45.77 235.17c0 1.52-.9 2.4-2.43 2.4H41.8v1.92c0 .25-.12.37-.38.37h-.77c-.25 0-.38-.12-.38-.38v-6.37c0-.25.13-.38.38-.38h2.7c1.52 0 2.42.9 2.42 2.42zm-1.66 0c0-.5-.38-.9-.9-.9h-1.27v1.8h1.28c.52 0 .9-.27.9-.9zM57.8 233.26l-2.83 6.36c-.12.25-.25.38-.64.38h-.9c-.25 0-.37-.13-.25-.38l.77-1.66-2.3-4.58c-.13-.25-.13-.38.26-.38h.9c.5 0 .64 0 .77.38l1.28 2.8 1.15-2.8c.12-.38.25-.38.76-.38h.9c.25-.25.25 0 .13.26zM69.8 233.26v6.36c0 .25-.12.38-.38.38h-.77c-.25 0-.38-.13-.38-.38v-5.22h-2.43v5.22c0 .25-.13.38-.38.38h-.77c-.27 0-.4-.13-.4-.38v-6.36c0-.26.13-.38.4-.38h4.85c.13-.13.25 0 .25.38zM82.2 233.26v6.36c0 .25-.12.38-.38.38h-.77c-.25 0-.38-.13-.38-.38v-5.22h-2.43v5.22c0 .25-.13.38-.38.38h-.77c-.26 0-.4-.13-.4-.38v-6.36c0-.26.14-.38.4-.38h4.85c.13-.13.25 0 .25.38zM91.8 232.62c1.9 0 2.93 1.02 2.93 2.67v2.03c0 1.65-1.02 2.67-2.94 2.67s-2.95-1.02-2.95-2.67v-2.04c0-1.66 1.15-2.68 2.94-2.68zm.12 1.53c-.9 0-1.28.38-1.28 1.14v2.03c0 .76.5 1.14 1.28 1.14.9 0 1.28-.38 1.28-1.14v-2.04c0-.77-.5-1.15-1.28-1.15zM106.88 234.66c0 .63-.26 1.14-.77 1.52.65.26 1.04.9 1.04 1.78 0 1.28-1.03 2.04-2.43 2.04h-2.8c-.26 0-.4-.13-.4-.38v-6.36c0-.26.14-.38.4-.38h2.8c1.4-.13 2.18.63 2.18 1.78zm-2.43-.38h-1.4v1.4h1.4c.5 0 .77-.26.77-.64 0-.64-.26-.76-.77-.76zm.26 2.8h-1.53v1.4h1.54c.52 0 .77-.26.77-.77 0-.37-.25-.63-.76-.63zM114.04 239.87c-.26 0-.4-.12-.4-.38v-6.37c.02-.25.14-.38.4-.38h.77c.26 0 .4.13.4.38v1.9h1.52c1.54 0 2.43.9 2.43 2.43 0 1.52-1.02 2.4-2.43 2.4h-2.68zm1.28-3.3v1.78h1.28c.64 0 .9-.38.9-.9 0-.5-.4-.88-.9-.88h-1.28zm5.24-3.82h.77c.25 0 .38.13.38.38v6.36c0 .25-.12.37-.37.37h-.77c-.26 0-.4-.12-.4-.38v-6.37c.02-.25.14-.38.4-.38zM133.47 233.26v.63c0 .25-.13.38-.38.38h-2.82v1.27h2.3c.25 0 .38.13.38.38v.64c0 .25-.13.38-.38.38h-2.3v1.4h2.94c.25 0 .38.12.38.38v.63c0 .26-.13.4-.38.4H129c-.26 0-.4-.14-.4-.4V233c0-.25.14-.38.4-.38h4.1c.24.13.37.26.37.64zM152.9 233.26v.63c0 .25-.12.38-.38.38H151v5.2c0 .27-.14.4-.4.4h-.9c-.25 0-.38-.13-.38-.4v-5.2h-1.53c-.27 0-.4-.13-.4-.4v-.62c0-.26.13-.38.4-.38h4.72c.26-.13.38 0 .38.38zM164.8 235.17c0 1.52-.9 2.4-2.44 2.4h-1.53v1.92c0 .25-.13.37-.38.37h-.77c-.26 0-.38-.12-.38-.38v-6.37c0-.25.12-.38.38-.38h2.68c1.4 0 2.43.9 2.43 2.42zm-1.67 0c0-.5-.38-.9-.9-.9h-1.27v1.8h1.28c.5 0 .9-.27.9-.9zM176.17 233.26v.63c0 .25-.13.38-.38.38h-2.83v1.27h2.3c.26 0 .4.13.4.38v.64c0 .25-.14.38-.4.38h-2.3v1.4h2.95c.25 0 .38.12.38.38v.63c0 .26-.13.4-.38.4h-4.22c-.26 0-.4-.14-.4-.4V233c0-.25.14-.38.4-.38h4.1c.24.13.37.26.37.64zM188.44 233.26v6.36c0 .25-.12.38-.38.38h-.77c-.26 0-.4-.13-.4-.38v-2.42h-2.42v2.42c0 .25-.13.38-.38.38h-.77c-.26 0-.38-.13-.38-.38v-6.36c0-.26.13-.38.38-.38h.77c.25 0 .38.12.38.38v2.42h2.43v-2.42c0-.26.14-.38.4-.38h.76c.26-.13.38 0 .38.38zM201.1 233.26v6.36c0 .25-.13.38-.38.38h-.77c-.25 0-.38-.13-.38-.38v-2.3c0-1.14.13-1.4.38-2.4-.25.88-.5 1.14-1.02 2.03l-1.8 2.92c-.12.13-.12.13-.38.13h-1.02c-.25 0-.38-.13-.38-.38v-6.36c0-.26.13-.38.38-.38h.77c.25 0 .38.12.38.38v2.3c0 1.13 0 1.4-.25 2.4.25-.9.5-1.27 1.02-2.03l1.8-2.93c.12-.12.12-.12.37-.12h.9c.25-.13.38 0 .38.38zM213.5 235.17c0 1.52-.9 2.4-2.43 2.4h-1.53v1.92c0 .25-.13.37-.38.37h-.77c-.27 0-.4-.12-.4-.38v-6.37c0-.25.13-.38.4-.38h2.67c1.54 0 2.43.9 2.43 2.42zm-1.66 0c0-.5-.38-.9-.9-.9h-1.27v1.8h1.28c.5 0 .9-.27.9-.9zM222.7 232.62c1.93 0 2.95 1.02 2.95 2.67v2.03c0 1.65-1.03 2.67-2.94 2.67-1.9 0-2.93-1.02-2.93-2.67v-2.04c0-1.66 1.15-2.68 2.94-2.68zm.14 1.53c-.9 0-1.28.38-1.28 1.14v2.03c0 .76.5 1.14 1.28 1.14.9 0 1.27-.38 1.27-1.14v-2.04c0-.77-.5-1.15-1.26-1.15zM237.8 234.66c0 .63-.26 1.14-.77 1.52.63.26 1.02.9 1.02 1.78 0 1.28-1.02 2.04-2.43 2.04h-2.8c-.27 0-.4-.13-.4-.38v-6.36c0-.26.13-.38.4-.38h2.8c1.4-.13 2.17.63 2.17 1.78zm-2.44-.38h-1.4v1.4h1.4c.52 0 .77-.26.77-.64 0-.64-.25-.76-.77-.76zm.26 2.8h-1.53v1.4h1.52c.5 0 .77-.26.77-.77-.14-.37-.27-.63-.78-.63zM250.07 239.87h-.77c-.5 0-.64 0-.9-.38l-.9-1.92c-.25-.5-.37-.63-1-.63h-.27v2.4c0 .27-.13.4-.38.4h-.77c-.26 0-.38-.13-.38-.4V233c0-.25.13-.38.38-.38h.77c.25 0 .38.13.38.38v2.42h.26l1.78-2.42c.25-.25.38-.38.76-.38h.9c.25 0 .38.13.25.38l-2.05 2.8c.38.26.64.5.9 1.02l1.27 2.42c.13.5 0 .63-.25.63zM262.47 233.26v6.36c0 .25-.13.38-.4.38h-.75c-.26 0-.4-.13-.4-.38v-2.3c0-1.14.14-1.4.4-2.4-.26.88-.5 1.14-1.03 2.03l-1.8 2.92c-.12.13-.12.13-.38.13h-1.02c-.26 0-.4-.13-.4-.38v-6.36c0-.26.14-.38.4-.38h.76c.26 0 .4.12.4.38v2.3c0 1.13 0 1.4-.27 2.4.25-.9.5-1.27 1.02-2.03l1.8-2.93c.1-.12.1-.12.37-.12h.88c.26-.13.4 0 .4.38zM202.5 96.77c-3.06-13.1-10.86-22.52-23.13-28.24-.13 0-.26-.13-.4-.13 1.04-1.9 1.8-3.94 2.3-6.1.9-3.95.78-7.76 0-11.7-1.26-5.86-4.08-10.56-9.32-13.87-4.1-2.54-8.44-3.82-13.3-3.94-4.98-.14-9.97-.14-14.95-.14-9.46 0-18.92 0-28.25 0-4.73 0-8.06 3.43-8.06 8 0 1.3 0 2.56 0 3.83 0 2.15 1.4 3.55 3.57 3.55 7.42 0 14.83 0 22.25 0 .12 0 .38 0 .5 0-.12.26-.12.5-.25.76-3.96 10.95-15.08 17.7-26.72 16.17C101 64.2 96 61.8 91.92 57.6c-4.1-4.2-6.4-9.3-6.9-15.27-.4-4.33.38-8.53 2.17-12.6 3.95-8.4 11.88-13.86 21.34-14.37 4.86-.25 9.33.76 13.55 3.05 3.2 1.8 7.15 1.28 9.58-1.5.9-1.03 1.8-2.3 2.56-3.45.25-.38.76-.76.9-1.27.76-1.78.25-3.43-1.16-4.45C127.72 3.15 120.8.6 113.02.1c-3.97-.26-7.8 0-11.77.76-8.56 1.9-15.85 6.1-21.73 12.72-6 6.74-9.33 14.63-10.1 23.66-.26 3.94 0 7.9.77 11.7 1.9 8.78 6.38 16.16 13.28 22 6.4 5.48 13.68 8.53 22.12 9.42 3.84.38 7.54.25 11.38-.38 6.26-1.15 11.9-3.56 17-7.25.13-.13.26-.13.4-.26 0 .13 0 .13 0 .13 0 1.27 0 2.42 0 3.7 0 .12-.14.37-.27.5-6.9 7-10.73 15.4-11.62 25.2-.4 4.06-.13 8 .76 11.94 1.92 8.65 6.27 15.9 12.92 21.63 7.8 6.74 16.74 9.92 27.1 9.92 2.17 0 4.47-.27 6.65-.65 7.68-1.4 14.45-4.58 20.2-9.92 7.55-7 12.02-15.52 13.05-25.7.5-4.06.25-8.26-.64-12.46zm-7.8 26.33c-5.62 9.8-14.05 15.9-25.18 17.94-15.2 2.92-30.17-4.07-37.97-16.92-2.55-4.33-4.34-9.03-4.86-14-1.28-10.8 1.53-20.35 8.7-28.6.88-1.03 1.78-1.92 2.8-2.94.13-.13.26-.25.26-.5 0-4.84 0-9.55 0-14.38 0 0 0 0 0-.13-.13.13-.26.25-.4.25-2.03 1.78-3.82 3.7-6 5.35-4.98 3.94-10.6 6.23-17 7.12C102.8 77.8 92.3 74.24 83.6 65.47c-5.36-5.34-8.55-11.96-9.7-19.34C71.46 31.4 78.5 16.64 91.4 9c4.48-2.67 9.47-4.33 14.58-4.83 9.08-.9 17.4 1.27 24.8 6.36.13.12.26.12.4.25-.78 1.02-1.54 2.04-2.3 3.18-.52.76-1.16 1.15-2.06 1.4-1.02.38-2.04.13-3.06-.38-2.43-1.27-4.86-2.3-7.55-2.8-16.1-3.56-31.44 6.5-34.76 21.75-2.3 10.18.38 19.34 7.67 26.84 4.36 4.45 9.72 7.12 15.86 8.14 6.78 1.03 13.3 0 19.3-3.55 7.04-4.07 11.64-10.18 13.56-18.06.25-.9.38-1.92.64-2.8 0-.14 0-.14 0-.4-4.6 0-9.2 0-13.8 0-4.6 0-9.1 0-13.7 0 0-1.52-.12-2.92 0-4.32.14-1.78 1.8-3.05 3.6-3.18.12 0 .25 0 .37 0 13.8 0 27.5 0 41.3 0 3.07 0 6.13.38 9.08 1.4 3.97 1.4 7.3 3.82 9.46 7.5 1.4 2.42 2.18 4.97 2.56 7.77.26 2.03.4 3.94.13 5.97-.38 3.44-1.66 6.5-3.58 9.3-.38.63-.77 1.14-1.28 1.77.9.4 1.78.65 2.8 1.03 11.77 4.32 20.84 14.75 23.14 27.1 1.8 8.64.64 16.9-3.83 24.67zM162.88 76.42c-16.1 0-29.03 12.97-29.03 28.87 0 16.27 13.43 29 29.28 28.87 15.73-.13 28.77-12.85 28.77-28.88 0-15.9-13.04-28.88-29.02-28.88zm0 53.8c-13.8 0-24.8-11.06-25.06-24.55-.26-14 11-25.18 24.8-25.3 13.94-.14 25.2 11.06 25.3 24.8 0 13.86-11.24 25.05-25.04 25.05zM146 72.98c.26-.12.5-.25.64-.25 2.43-1.02 4.86-2.04 7.4-2.55 1.93-.38 3.98-.76 6.02-1.14 5.76-1.15 9.46-5.85 9.97-11.32.4-4.07-1.27-7.38-4.2-10.05-2.7-2.3-5.9-3.3-9.35-3.44-3.32-.12-6.64 0-9.84-.12-.38 0-.5.13-.5.52 0 9.28 0 18.57 0 27.85-.14.13-.14.26-.14.5zm3.96-24.8c2.82.13 5.63-.26 8.44.38 2.43.5 4.48 1.65 6 3.56 2.06 2.67 2.06 6.23.14 9.3-1.28 2.02-3.2 3.17-5.5 3.68-2.04.38-4.1.76-6.14 1.27-1.02.25-1.9.5-2.8.76-.14-6.36-.14-12.6-.14-18.95z"/></svg>